<svg
        xmlns="http://www.w3.org/2000/svg"
        xmlns:xlink="http://www.w3.org/1999/xlink"
        width="50px" height="48px">
    <path fill-rule="evenodd"  fill="rgb(136, 177, 56)"
          d="M49.121,41.591 L43.440,47.276 L32.212,36.048 C28.825,38.777 24.523,40.418 19.834,40.418 C8.924,40.418 0.081,31.575 0.081,20.665 C0.081,9.754 8.924,0.911 19.834,0.911 C30.741,0.911 39.584,9.754 39.587,20.665 C39.587,23.965 38.767,27.071 37.336,29.806 L49.121,41.591 ZM19.834,8.946 C13.369,8.946 8.116,14.205 8.116,20.665 C8.116,27.124 13.373,32.379 19.834,32.379 C26.291,32.379 31.553,27.128 31.553,20.665 C31.553,14.201 26.291,8.946 19.834,8.946 Z"/>
</svg>