<svg
        xmlns="http://www.w3.org/2000/svg"
        xmlns:xlink="http://www.w3.org/1999/xlink"
        width="53px" height="52px">
    <path fill-rule="evenodd"  fill="rgb(136, 177, 56)"
          d="M52.981,29.315 L52.981,22.662 L47.425,22.218 C47.224,21.123 46.940,20.058 46.574,19.030 L51.161,15.869 L47.835,10.108 L42.798,12.503 C42.083,11.666 41.304,10.887 40.468,10.173 L42.862,5.135 L37.101,1.809 L33.940,6.396 C32.911,6.031 31.846,5.747 30.752,5.547 L30.306,-0.011 L23.655,-0.011 L23.210,5.547 C22.115,5.747 21.050,6.031 20.022,6.396 L16.861,1.810 L11.100,5.135 L13.494,10.173 C12.657,10.887 11.878,11.666 11.164,12.503 L6.127,10.109 L2.802,15.869 L7.388,19.030 C7.022,20.058 6.739,21.123 6.538,22.219 L0.981,22.663 L0.982,29.315 L6.538,29.760 C6.739,30.855 7.022,31.920 7.388,32.947 L2.802,36.109 L6.128,41.868 L11.164,39.476 C11.879,40.312 12.658,41.092 13.495,41.806 L11.101,46.843 L16.862,50.168 L20.022,45.583 C21.050,45.947 22.115,46.232 23.210,46.433 L23.655,51.989 L30.307,51.989 L30.752,46.433 C31.847,46.232 32.911,45.947 33.940,45.582 L37.101,50.168 L42.862,46.843 L40.468,41.805 C41.304,41.091 42.083,40.312 42.798,39.475 L47.835,41.868 L51.161,36.108 L46.575,32.947 C46.940,31.919 47.224,30.855 47.425,29.760 L52.981,29.315 ZM26.981,38.989 C19.801,38.989 13.981,33.169 13.981,25.989 C13.981,18.809 19.801,12.989 26.981,12.989 C34.161,12.989 39.981,18.809 39.981,25.989 C39.981,33.169 34.161,38.989 26.981,38.989 Z"/>
</svg>