<svg
        xmlns="http://www.w3.org/2000/svg"
        xmlns:xlink="http://www.w3.org/1999/xlink"
        width="13px" height="14px">
    <path fill-rule="evenodd" fill="rgb(255, 255, 255)"
          d="M5.958,0.027 C5.958,0.027 5.471,0.000 6.960,0.000 C9.235,0.000 9.506,2.652 9.506,2.652 C9.506,2.652 9.533,5.441 9.533,6.098 C9.533,6.754 8.448,7.193 8.640,7.000 C8.667,6.973 8.640,8.750 8.640,8.750 L13.000,12.250 L13.000,14.000 L0.032,14.000 L0.005,12.277 L4.333,8.723 L4.333,7.000 C4.333,7.000 3.467,6.918 3.467,6.098 C3.467,5.277 3.467,2.652 3.467,2.652 C3.467,2.652 3.792,0.027 5.958,0.027 Z"/>
</svg>