<svg
        xmlns="http://www.w3.org/2000/svg"
        xmlns:xlink="http://www.w3.org/1999/xlink"
        width="29px" height="25px">
    <path fill-rule="evenodd" fill="rgb(37, 40, 37)"
          d="M29.000,2.766 L26.281,5.532 C26.281,5.532 26.281,5.281 26.281,5.993 C26.281,6.498 26.201,6.981 26.085,7.450 C26.022,11.255 24.830,16.301 19.937,20.283 C10.312,28.117 -0.000,21.205 -0.000,21.205 C8.156,21.205 8.156,18.439 8.156,18.439 C6.344,18.439 2.719,14.751 2.719,14.751 C3.625,15.673 5.437,14.751 5.437,14.751 C0.906,11.985 0.906,9.219 0.906,9.219 C1.812,10.141 3.625,9.219 3.625,9.219 C-0.906,5.532 1.812,0.922 1.812,0.922 C2.719,5.532 14.500,7.376 14.500,7.376 L14.650,7.299 C14.557,6.878 14.500,5.982 14.500,5.532 C14.500,2.222 17.137,-0.000 20.390,-0.000 C22.181,-0.000 23.765,0.830 24.846,2.113 L25.375,1.844 L28.094,-0.000 L26.281,3.688 L29.000,2.766 Z"/>
</svg>