<svg
        xmlns="http://www.w3.org/2000/svg"
        xmlns:xlink="http://www.w3.org/1999/xlink"
        width="29px" height="27px">
    <path fill-rule="evenodd" fill="rgb(39, 44, 44)"
          d="M24.166,9.643 C22.722,9.643 21.440,8.997 20.554,7.995 L9.444,12.125 C9.575,12.562 9.666,13.015 9.666,13.494 C9.666,13.781 9.630,14.060 9.582,14.333 L20.159,19.482 C21.028,18.200 22.499,17.357 24.166,17.357 C26.836,17.357 29.000,19.515 29.000,22.178 C29.000,24.841 26.836,27.000 24.166,27.000 C21.540,27.000 19.415,24.908 19.346,22.305 L8.247,16.902 C7.372,17.772 6.166,18.310 4.833,18.310 C2.164,18.310 -0.000,16.154 -0.000,13.494 C-0.000,10.834 2.164,8.678 4.833,8.678 C5.931,8.678 6.931,9.057 7.742,9.671 L19.386,5.342 C19.367,5.169 19.333,5.000 19.333,4.821 C19.333,2.158 21.497,-0.000 24.166,-0.000 C26.836,-0.000 29.000,2.158 29.000,4.821 C29.000,7.484 26.836,9.643 24.166,9.643 Z"/>
</svg>