<svg
        xmlns="http://www.w3.org/2000/svg"
        xmlns:xlink="http://www.w3.org/1999/xlink"
        width="33px" height="33px">
    <path fill-rule="evenodd" fill="rgb(37, 40, 37)"
          d="M16.500,33.000 C7.387,33.000 -0.000,25.612 -0.000,16.500 C-0.000,7.387 7.387,-0.000 16.500,-0.000 C25.612,-0.000 33.000,7.387 33.000,16.500 C33.000,25.612 25.612,33.000 16.500,33.000 ZM29.560,18.344 C27.937,17.940 24.885,17.393 21.415,17.816 C23.241,22.550 23.983,26.266 24.155,27.239 C27.033,25.184 29.045,22.006 29.560,18.344 ZM21.791,28.589 C21.128,24.958 19.990,21.496 18.676,18.356 C14.947,19.386 11.067,21.768 8.151,26.721 C10.426,28.582 13.332,29.700 16.500,29.700 C18.383,29.700 20.170,29.299 21.791,28.589 ZM3.300,16.500 C3.300,19.686 4.429,22.609 6.309,24.889 C7.764,22.477 11.287,17.842 17.651,16.048 C17.233,15.154 16.809,14.284 16.381,13.461 C10.386,15.782 5.869,15.945 3.355,15.748 C3.340,16.000 3.300,16.244 3.300,16.500 ZM3.708,13.362 C7.059,13.393 11.477,12.814 15.287,11.448 C13.536,8.340 11.875,5.934 10.873,4.573 C7.321,6.251 4.664,9.471 3.708,13.362 ZM16.500,3.300 C15.420,3.300 14.376,3.444 13.371,3.688 C15.151,5.861 16.639,8.124 17.904,10.356 C21.352,8.725 23.601,7.003 24.628,6.114 C22.386,4.356 19.569,3.300 16.500,3.300 ZM26.597,8.006 C23.886,9.842 21.339,11.264 18.981,12.354 C19.526,13.420 20.012,14.466 20.456,15.484 C23.114,15.147 26.179,15.305 29.686,16.204 C29.617,13.084 28.471,10.231 26.597,8.006 Z"/>
</svg>